<svg id="SvgjsSvg1006" width="1817.25" height="1003" xmlns="http://www.w3.org/2000/svg" version="1.1" xmlns:xlink="http://www.w3.org/1999/xlink" xmlns:svgjs="http://svgjs.com/svgjs"><defs id="SvgjsDefs1007"><pattern id="SvgjsPattern1010" x="0" y="0" width="972" height="360" patternUnits="userSpaceOnUse"><image id="SvgjsImage1011" xlink:href="https://cdn.processon.com/5e7716c8e4b027d999c1de12?e=1584866521&amp;amp;token=trhI0BY8QfVrIGn9nENop6JAc6l5nZuxhjQ62UfM:QmAfocU0gbsNCOlUpqyaarW15ik=" width="972" height="360" preserveAspectRatio="none" crossOrigin="anonymous" x="0" y="0"></image></pattern><pattern id="SvgjsPattern1014" x="0" y="0" width="763.75" height="458" patternUnits="userSpaceOnUse"><image id="SvgjsImage1015" xlink:href="https://cdn.processon.com/5e7716dde4b027d999c1de37.svg?e=1584866541&amp;amp;token=trhI0BY8QfVrIGn9nENop6JAc6l5nZuxhjQ62UfM:Cc4pjMTlCERwwIunCHN6qrsE93g=" width="763.75" height="458" preserveAspectRatio="none" crossOrigin="anonymous" x="0" y="0"></image></pattern><pattern id="SvgjsPattern1018" x="0" y="0" width="810.5" height="474" patternUnits="userSpaceOnUse"><image id="SvgjsImage1019" xlink:href="https://cdn.processon.com/5e7716eae4b01518203316fd.svg?e=1584866554&amp;amp;token=trhI0BY8QfVrIGn9nENop6JAc6l5nZuxhjQ62UfM:2jV_7ma0nl4VCoto6YSmlStqZWg=" width="810.5" height="474" preserveAspectRatio="none" crossOrigin="anonymous" x="0" y="0"></image></pattern><pattern id="SvgjsPattern1040" x="0" y="0" width="969" height="464" patternUnits="userSpaceOnUse"><image id="SvgjsImage1041" xlink:href="https://cdn.processon.com/5e7716f5e4b011fccea6fe5c?e=1584866566&amp;amp;token=trhI0BY8QfVrIGn9nENop6JAc6l5nZuxhjQ62UfM:zZuoRXygVnOtEcNVehwPogpcQt4=" width="969" height="464" preserveAspectRatio="none" crossOrigin="anonymous" x="0" y="0"></image></pattern></defs><g id="SvgjsG1008" transform="translate(25,25)"><path id="SvgjsPath1009" d="M 0 0L 972 0L 972 360L 0 360Z" stroke="none" fill="url(#SvgjsPattern1010)"></path></g><g id="SvgjsG1012" transform="translate(1028,28)"><path id="SvgjsPath1013" d="M 0 0L 763.75 0L 763.75 458L 0 458Z" stroke="none" fill="url(#SvgjsPattern1014)"></path></g><g id="SvgjsG1016" transform="translate(981.25,471)"><path id="SvgjsPath1017" d="M 0 0L 810.5 0L 810.5 474L 0 474Z" stroke="none" fill="url(#SvgjsPattern1018)"></path></g><g id="SvgjsG1020" transform="translate(270,410)"><path id="SvgjsPath1021" d="M 0 0L 485 0L 485 34L 0 34Z" stroke="none" fill="none"></path><g id="SvgjsG1022"><text id="SvgjsText1023" font-family="微软雅黑" text-anchor="middle" font-size="25px" width="456" fill="#323232" font-weight="400" align="middle" anchor="middle" family="微软雅黑" size="25px" weight="400" font-style="" y="-2.25" transform="rotate(0)"><tspan id="SvgjsTspan1024" dy="31" x="242.5"><tspan id="SvgjsTspan1025" style="text-decoration:;">(a) Abstract ARMv8 PMUs Selection Process</tspan></tspan></text></g></g><g id="SvgjsG1026" transform="translate(250.5,936)"><path id="SvgjsPath1027" d="M 0 0L 524 0L 524 42L 0 42Z" stroke="none" fill="none"></path><g id="SvgjsG1028"><text id="SvgjsText1029" font-family="微软雅黑" text-anchor="middle" font-size="25px" width="490" fill="#323232" font-weight="400" align="middle" anchor="middle" family="微软雅黑" size="25px" weight="400" font-style="" y="1.75" transform="rotate(0)"><tspan id="SvgjsTspan1030" dy="31" x="262"><tspan id="SvgjsTspan1031" style="text-decoration:;">(b) PMU-based Performance and Energy Models</tspan></tspan></text></g></g><g id="SvgjsG1032" transform="translate(1124.5,936)"><path id="SvgjsPath1033" d="M 0 0L 524 0L 524 42L 0 42Z" stroke="none" fill="none"></path><g id="SvgjsG1034"><text id="SvgjsText1035" font-family="微软雅黑" text-anchor="middle" font-size="25px" width="472" fill="#323232" font-weight="400" align="middle" anchor="middle" family="微软雅黑" size="25px" weight="400" font-style="" y="1.75" transform="rotate(0)"><tspan id="SvgjsTspan1036" dy="31" x="262"><tspan id="SvgjsTspan1037" style="text-decoration:;">(c) Performance and Energy Models Validation</tspan></tspan></text></g></g><g id="SvgjsG1038" transform="translate(28,461)"><path id="SvgjsPath1039" d="M 0 0L 969 0L 969 464L 0 464Z" stroke="none" fill="url(#SvgjsPattern1040)"></path></g><g id="SvgjsG1042" transform="matrix(-1.8369701987210297e-16,-1,1,-1.8369701987210297e-16,1009,254)"><path id="SvgjsPath1043" d="M 0 0L 160 0L 160 40L 0 40Z" stroke="none" fill="none"></path><g id="SvgjsG1044"><text id="SvgjsText1045" font-family="Arial" text-anchor="middle" font-size="20px" width="80" fill="#323232" font-weight="400" align="middle" anchor="middle" family="Arial" size="20px" weight="400" font-style="" y="4.5" transform="rotate(0)"><tspan id="SvgjsTspan1046" dy="25" x="80"><tspan id="SvgjsTspan1047" style="text-decoration:;">Speedup</tspan></tspan></text></g></g><g id="SvgjsG1048" transform="matrix(-1.8369701987210297e-16,-1,1,-1.8369701987210297e-16,1001,729)"><path id="SvgjsPath1049" d="M 0 0L 195 0L 195 41.000000000000114L 0 41.000000000000114Z" stroke="none" fill="none"></path><g id="SvgjsG1050"><text id="SvgjsText1051" font-family="Arial" text-anchor="middle" font-size="20px" width="187" fill="#323232" font-weight="400" align="middle" anchor="middle" family="Arial" size="20px" weight="400" font-style="" y="5.000000000000057" transform="rotate(0)"><tspan id="SvgjsTspan1052" dy="25" x="97.5"><tspan id="SvgjsTspan1053" style="text-decoration:;">Energy Consumption</tspan></tspan></text></g></g></svg>