<?xml version="1.0" encoding="UTF-8"?>
<!DOCTYPE svg PUBLIC "-//W3C//DTD SVG 1.1//EN" "http://www.w3.org/Graphics/SVG/1.1/DTD/svg11.dtd">
<svg width="224mm" height="152mm" viewBox="0 0 22400 15200" version="1.1" xmlns="http://www.w3.org/2000/svg" stroke-width="28.222" stroke-linejoin="round" xml:space="preserve">
 <path fill="rgb(255,255,255)" stroke="none" d="M 11218,15212 L 0,15212 0,0 22435,0 22435,15212 11218,15212 Z"/>
 <path fill="none" stroke="rgb(179,179,179)" stroke-linejoin="round" d="M 12339,11351 L 2696,11351 2696,408 21982,408 21982,11351 12339,11351 Z"/>
 <path fill="none" stroke="rgb(179,179,179)" stroke-linejoin="round" d="M 21982,11349 L 2696,11349"/>
 <path fill="none" stroke="rgb(179,179,179)" stroke-linejoin="round" d="M 21982,9525 L 2696,9525"/>
 <path fill="none" stroke="rgb(179,179,179)" stroke-linejoin="round" d="M 21982,7701 L 2696,7701"/>
 <path fill="none" stroke="rgb(179,179,179)" stroke-linejoin="round" d="M 21982,5878 L 2696,5878"/>
 <path fill="none" stroke="rgb(179,179,179)" stroke-linejoin="round" d="M 21982,4054 L 2696,4054"/>
 <path fill="none" stroke="rgb(179,179,179)" stroke-linejoin="round" d="M 21982,2230 L 2696,2230"/>
 <path fill="none" stroke="rgb(179,179,179)" stroke-linejoin="round" d="M 21982,406 L 2696,406"/>
 <path fill="none" stroke="rgb(179,179,179)" stroke-linejoin="round" d="M 2696,11499 L 2696,11349"/>
 <path fill="none" stroke="rgb(179,179,179)" stroke-linejoin="round" d="M 2696,11499 L 2696,11349"/>
 <path fill="none" stroke="rgb(179,179,179)" stroke-linejoin="round" d="M 3830,11499 L 3830,11349"/>
 <path fill="none" stroke="rgb(179,179,179)" stroke-linejoin="round" d="M 3830,11499 L 3830,11349"/>
 <path fill="none" stroke="rgb(179,179,179)" stroke-linejoin="round" d="M 4965,11499 L 4965,11349"/>
 <path fill="none" stroke="rgb(179,179,179)" stroke-linejoin="round" d="M 4965,11499 L 4965,11349"/>
 <path fill="none" stroke="rgb(179,179,179)" stroke-linejoin="round" d="M 6099,11499 L 6099,11349"/>
 <path fill="none" stroke="rgb(179,179,179)" stroke-linejoin="round" d="M 6099,11499 L 6099,11349"/>
 <path fill="none" stroke="rgb(179,179,179)" stroke-linejoin="round" d="M 7234,11499 L 7234,11349"/>
 <path fill="none" stroke="rgb(179,179,179)" stroke-linejoin="round" d="M 7234,11499 L 7234,11349"/>
 <path fill="none" stroke="rgb(179,179,179)" stroke-linejoin="round" d="M 8368,11499 L 8368,11349"/>
 <path fill="none" stroke="rgb(179,179,179)" stroke-linejoin="round" d="M 8368,11499 L 8368,11349"/>
 <path fill="none" stroke="rgb(179,179,179)" stroke-linejoin="round" d="M 9503,11499 L 9503,11349"/>
 <path fill="none" stroke="rgb(179,179,179)" stroke-linejoin="round" d="M 9503,11499 L 9503,11349"/>
 <path fill="none" stroke="rgb(179,179,179)" stroke-linejoin="round" d="M 10637,11499 L 10637,11349"/>
 <path fill="none" stroke="rgb(179,179,179)" stroke-linejoin="round" d="M 10637,11499 L 10637,11349"/>
 <path fill="none" stroke="rgb(179,179,179)" stroke-linejoin="round" d="M 11771,11499 L 11771,11349"/>
 <path fill="none" stroke="rgb(179,179,179)" stroke-linejoin="round" d="M 11771,11499 L 11771,11349"/>
 <path fill="none" stroke="rgb(179,179,179)" stroke-linejoin="round" d="M 12905,11499 L 12905,11349"/>
 <path fill="none" stroke="rgb(179,179,179)" stroke-linejoin="round" d="M 12905,11499 L 12905,11349"/>
 <path fill="none" stroke="rgb(179,179,179)" stroke-linejoin="round" d="M 14040,11499 L 14040,11349"/>
 <path fill="none" stroke="rgb(179,179,179)" stroke-linejoin="round" d="M 14040,11499 L 14040,11349"/>
 <path fill="none" stroke="rgb(179,179,179)" stroke-linejoin="round" d="M 15174,11499 L 15174,11349"/>
 <path fill="none" stroke="rgb(179,179,179)" stroke-linejoin="round" d="M 15174,11499 L 15174,11349"/>
 <path fill="none" stroke="rgb(179,179,179)" stroke-linejoin="round" d="M 16309,11499 L 16309,11349"/>
 <path fill="none" stroke="rgb(179,179,179)" stroke-linejoin="round" d="M 16309,11499 L 16309,11349"/>
 <path fill="none" stroke="rgb(179,179,179)" stroke-linejoin="round" d="M 17443,11499 L 17443,11349"/>
 <path fill="none" stroke="rgb(179,179,179)" stroke-linejoin="round" d="M 17443,11499 L 17443,11349"/>
 <path fill="none" stroke="rgb(179,179,179)" stroke-linejoin="round" d="M 18578,11499 L 18578,11349"/>
 <path fill="none" stroke="rgb(179,179,179)" stroke-linejoin="round" d="M 18578,11499 L 18578,11349"/>
 <path fill="none" stroke="rgb(179,179,179)" stroke-linejoin="round" d="M 19712,11499 L 19712,11349"/>
 <path fill="none" stroke="rgb(179,179,179)" stroke-linejoin="round" d="M 19712,11499 L 19712,11349"/>
 <path fill="none" stroke="rgb(179,179,179)" stroke-linejoin="round" d="M 20847,11499 L 20847,11349"/>
 <path fill="none" stroke="rgb(179,179,179)" stroke-linejoin="round" d="M 20847,11499 L 20847,11349"/>
 <path fill="none" stroke="rgb(179,179,179)" stroke-linejoin="round" d="M 21982,11499 L 21982,11349"/>
 <path fill="none" stroke="rgb(179,179,179)" stroke-linejoin="round" d="M 21982,11499 L 21982,11349"/>
 <path fill="none" stroke="rgb(179,179,179)" stroke-linejoin="round" d="M 2696,11349 L 21982,11349"/>
 <path fill="none" stroke="rgb(179,179,179)" stroke-linejoin="round" d="M 2546,11349 L 2696,11349"/>
 <path fill="none" stroke="rgb(179,179,179)" stroke-linejoin="round" d="M 2546,11349 L 2696,11349"/>
 <path fill="none" stroke="rgb(179,179,179)" stroke-linejoin="round" d="M 2546,9525 L 2696,9525"/>
 <path fill="none" stroke="rgb(179,179,179)" stroke-linejoin="round" d="M 2546,9525 L 2696,9525"/>
 <path fill="none" stroke="rgb(179,179,179)" stroke-linejoin="round" d="M 2546,7701 L 2696,7701"/>
 <path fill="none" stroke="rgb(179,179,179)" stroke-linejoin="round" d="M 2546,7701 L 2696,7701"/>
 <path fill="none" stroke="rgb(179,179,179)" stroke-linejoin="round" d="M 2546,5878 L 2696,5878"/>
 <path fill="none" stroke="rgb(179,179,179)" stroke-linejoin="round" d="M 2546,5878 L 2696,5878"/>
 <path fill="none" stroke="rgb(179,179,179)" stroke-linejoin="round" d="M 2546,4054 L 2696,4054"/>
 <path fill="none" stroke="rgb(179,179,179)" stroke-linejoin="round" d="M 2546,4054 L 2696,4054"/>
 <path fill="none" stroke="rgb(179,179,179)" stroke-linejoin="round" d="M 2546,2230 L 2696,2230"/>
 <path fill="none" stroke="rgb(179,179,179)" stroke-linejoin="round" d="M 2546,2230 L 2696,2230"/>
 <path fill="none" stroke="rgb(179,179,179)" stroke-linejoin="round" d="M 2546,406 L 2696,406"/>
 <path fill="none" stroke="rgb(179,179,179)" stroke-linejoin="round" d="M 2546,406 L 2696,406"/>
 <path fill="none" stroke="rgb(179,179,179)" stroke-linejoin="round" d="M 2696,11349 L 2696,406"/>
 <path fill="rgb(0,69,134)" stroke="none" d="M 21036,11349 L 21414,11349 21414,2170 21036,2170 21036,11349 Z"/>
 <path fill="rgb(0,69,134)" stroke="none" d="M 19902,11349 L 20280,11349 20280,2550 19902,2550 19902,11349 Z"/>
 <path fill="rgb(0,69,134)" stroke="none" d="M 18767,11349 L 19145,11349 19145,2960 18767,2960 18767,11349 Z"/>
 <path fill="rgb(0,69,134)" stroke="none" d="M 17632,11349 L 18011,11349 18011,3781 17632,3781 17632,11349 Z"/>
 <path fill="rgb(0,69,134)" stroke="none" d="M 16498,11349 L 16876,11349 16876,3781 16498,3781 16498,11349 Z"/>
 <path fill="rgb(0,69,134)" stroke="none" d="M 15363,11349 L 15742,11349 15742,4054 15363,4054 15363,11349 Z"/>
 <path fill="rgb(0,69,134)" stroke="none" d="M 14229,11349 L 14607,11349 14607,4277 14229,4277 14229,11349 Z"/>
 <path fill="rgb(0,69,134)" stroke="none" d="M 13094,11349 L 13473,11349 13473,4693 13094,4693 13094,11349 Z"/>
 <path fill="rgb(0,69,134)" stroke="none" d="M 11960,11349 L 12338,11349 12338,4693 11960,4693 11960,11349 Z"/>
 <path fill="rgb(0,69,134)" stroke="none" d="M 10826,11349 L 11204,11349 11204,5133 10826,5133 10826,11349 Z"/>
 <path fill="rgb(0,69,134)" stroke="none" d="M 9692,11349 L 10070,11349 10070,5295 9692,5295 9692,11349 Z"/>
 <path fill="rgb(0,69,134)" stroke="none" d="M 8557,11349 L 8935,11349 8935,5331 8557,5331 8557,11349 Z"/>
 <path fill="rgb(0,69,134)" stroke="none" d="M 7423,11349 L 7801,11349 7801,5740 7423,5740 7423,11349 Z"/>
 <path fill="rgb(0,69,134)" stroke="none" d="M 6288,11349 L 6666,11349 6666,6243 6288,6243 6288,11349 Z"/>
 <path fill="rgb(0,69,134)" stroke="none" d="M 5154,11349 L 5532,11349 5532,6348 5154,6348 5154,11349 Z"/>
 <path fill="rgb(0,69,134)" stroke="none" d="M 4019,11349 L 4397,11349 4397,6608 4019,6608 4019,11349 Z"/>
 <path fill="rgb(0,69,134)" stroke="none" d="M 2885,11349 L 3263,11349 3263,7287 2885,7287 2885,11349 Z"/>
 <path fill="rgb(255,66,14)" stroke="none" d="M 21414,11349 L 21792,11349 21792,4283 21414,4283 21414,11349 Z"/>
 <path fill="rgb(255,66,14)" stroke="none" d="M 20280,11349 L 20658,11349 20658,2436 20280,2436 20280,11349 Z"/>
 <path fill="rgb(255,66,14)" stroke="none" d="M 19145,11349 L 19523,11349 19523,4535 19145,4535 19145,11349 Z"/>
 <path fill="rgb(255,66,14)" stroke="none" d="M 18011,11349 L 18389,11349 18389,3569 18011,3569 18011,11349 Z"/>
 <path fill="rgb(255,66,14)" stroke="none" d="M 16876,11349 L 17254,11349 17254,4195 16876,4195 16876,11349 Z"/>
 <path fill="rgb(255,66,14)" stroke="none" d="M 15742,11349 L 16120,11349 16120,4248 15742,4248 15742,11349 Z"/>
 <path fill="rgb(255,66,14)" stroke="none" d="M 14607,11349 L 14985,11349 14985,4276 14607,4276 14607,11349 Z"/>
 <path fill="rgb(255,66,14)" stroke="none" d="M 13473,11349 L 13851,11349 13851,4466 13473,4466 13473,11349 Z"/>
 <path fill="rgb(255,66,14)" stroke="none" d="M 12338,11349 L 12716,11349 12716,4585 12338,4585 12338,11349 Z"/>
 <path fill="rgb(255,66,14)" stroke="none" d="M 11204,11349 L 11582,11349 11582,5299 11204,5299 11204,11349 Z"/>
 <path fill="rgb(255,66,14)" stroke="none" d="M 10070,11349 L 10448,11349 10448,4490 10070,4490 10070,11349 Z"/>
 <path fill="rgb(255,66,14)" stroke="none" d="M 8935,11349 L 9314,11349 9314,4466 8935,4466 8935,11349 Z"/>
 <path fill="rgb(255,66,14)" stroke="none" d="M 7801,11349 L 8179,11349 8179,5771 7801,5771 7801,11349 Z"/>
 <path fill="rgb(255,66,14)" stroke="none" d="M 6666,11349 L 7045,11349 7045,4619 6666,4619 6666,11349 Z"/>
 <path fill="rgb(255,66,14)" stroke="none" d="M 5532,11349 L 5910,11349 5910,6495 5532,6495 5532,11349 Z"/>
 <path fill="rgb(255,66,14)" stroke="none" d="M 4397,11349 L 4775,11349 4775,5620 4397,5620 4397,11349 Z"/>
 <path fill="rgb(255,66,14)" stroke="none" d="M 3263,11349 L 3641,11349 3641,7592 3263,7592 3263,11349 Z"/>
 <text class="TextShape" transform="translate(1868,13302) rotate(-44.9) translate(-1868,-13302)"><tspan class="TextParagraph" font-family="Liberation Sans, sans-serif" font-size="353px" font-weight="400"><tspan class="TextPosition" x="1868" y="13302"><tspan fill="rgb(0,0,0)" stroke="none">streamcluster</tspan></tspan></tspan></text>
 <text class="TextShape" transform="translate(3638,12666) rotate(-44.9) translate(-3638,-12666)"><tspan class="TextParagraph" font-family="Liberation Sans, sans-serif" font-size="353px" font-weight="400"><tspan class="TextPosition" x="3638" y="12666"><tspan fill="rgb(0,0,0)" stroke="none">canneal</tspan></tspan></tspan></text>
 <text class="TextShape" transform="translate(5091,12348) rotate(-44.9) translate(-5091,-12348)"><tspan class="TextParagraph" font-family="Liberation Sans, sans-serif" font-size="353px" font-weight="400"><tspan class="TextPosition" x="5091" y="12348"><tspan fill="rgb(0,0,0)" stroke="none">radix</tspan></tspan></tspan></text>
 <text class="TextShape" transform="translate(5777,12797) rotate(-44.9) translate(-5777,-12797)"><tspan class="TextParagraph" font-family="Liberation Sans, sans-serif" font-size="353px" font-weight="400"><tspan class="TextPosition" x="5777" y="12797"><tspan fill="rgb(0,0,0)" stroke="none">cholesky</tspan></tspan></tspan></text>
 <text class="TextShape" transform="translate(7173,12536) rotate(-44.9) translate(-7173,-12536)"><tspan class="TextParagraph" font-family="Liberation Sans, sans-serif" font-size="353px" font-weight="400"><tspan class="TextPosition" x="7173" y="12536"><tspan fill="rgb(0,0,0)" stroke="none">lu_ncb</tspan></tspan></tspan></text>
 <text class="TextShape" transform="translate(7596,13246) rotate(-44.9) translate(-7596,-13246)"><tspan class="TextParagraph" font-family="Liberation Sans, sans-serif" font-size="353px" font-weight="400"><tspan class="TextPosition" x="7596" y="13246"><tspan fill="rgb(0,0,0)" stroke="none">blackscholes</tspan></tspan></tspan></text>
 <text class="TextShape" transform="translate(9367,12610) rotate(-44.9) translate(-9367,-12610)"><tspan class="TextParagraph" font-family="Liberation Sans, sans-serif" font-size="353px" font-weight="400"><tspan class="TextPosition" x="9367" y="12610"><tspan fill="rgb(0,0,0)" stroke="none">volrend</tspan></tspan></tspan></text>
 <text class="TextShape" transform="translate(10557,12554) rotate(-44.9) translate(-10557,-12554)"><tspan class="TextParagraph" font-family="Liberation Sans, sans-serif" font-size="353px" font-weight="400"><tspan class="TextPosition" x="10557" y="12554"><tspan fill="rgb(0,0,0)" stroke="none">barnes</tspan></tspan></tspan></text>
 <text class="TextShape" transform="translate(11860,12386) rotate(-44.9) translate(-11860,-12386)"><tspan class="TextParagraph" font-family="Liberation Sans, sans-serif" font-size="353px" font-weight="400"><tspan class="TextPosition" x="11860" y="12386"><tspan fill="rgb(0,0,0)" stroke="none">ferret</tspan></tspan></tspan></text>
 <text class="TextShape" transform="translate(12247,13134) rotate(-44.9) translate(-12247,-13134)"><tspan class="TextParagraph" font-family="Liberation Sans, sans-serif" font-size="353px" font-weight="400"><tspan class="TextPosition" x="12247" y="13134"><tspan fill="rgb(0,0,0)" stroke="none">fluidanimate</tspan></tspan></tspan></text>
 <text class="TextShape" transform="translate(13811,12704) rotate(-44.9) translate(-13811,-12704)"><tspan class="TextParagraph" font-family="Liberation Sans, sans-serif" font-size="353px" font-weight="400"><tspan class="TextPosition" x="13811" y="12704"><tspan fill="rgb(0,0,0)" stroke="none">raytrace</tspan></tspan></tspan></text>
 <text class="TextShape" transform="translate(15302,12348) rotate(-44.9) translate(-15302,-12348)"><tspan class="TextParagraph" font-family="Liberation Sans, sans-serif" font-size="353px" font-weight="400"><tspan class="TextPosition" x="15302" y="12348"><tspan fill="rgb(0,0,0)" stroke="none">x264</tspan></tspan></tspan></text>
 <text class="TextShape" transform="translate(15538,13246) rotate(-44.9) translate(-15538,-13246)"><tspan class="TextParagraph" font-family="Liberation Sans, sans-serif" font-size="353px" font-weight="400"><tspan class="TextPosition" x="15538" y="13246"><tspan fill="rgb(0,0,0)" stroke="none">water_spatial</tspan></tspan></tspan></text>
 <text class="TextShape" transform="translate(17046,12872) rotate(-44.9) translate(-17046,-12872)"><tspan class="TextParagraph" font-family="Liberation Sans, sans-serif" font-size="353px" font-weight="400"><tspan class="TextPosition" x="17046" y="12872"><tspan fill="rgb(0,0,0)" stroke="none">ocean_cp</tspan></tspan></tspan></text>
 <text class="TextShape" transform="translate(18292,12760) rotate(-44.9) translate(-18292,-12760)"><tspan class="TextParagraph" font-family="Liberation Sans, sans-serif" font-size="353px" font-weight="400"><tspan class="TextPosition" x="18292" y="12760"><tspan fill="rgb(0,0,0)" stroke="none">freqmine</tspan></tspan></tspan></text>
 <text class="TextShape" transform="translate(18661,13527) rotate(-44.9) translate(-18661,-13527)"><tspan class="TextParagraph" font-family="Liberation Sans, sans-serif" font-size="353px" font-weight="400"><tspan class="TextPosition" x="18661" y="13527"><tspan fill="rgb(0,0,0)" stroke="none">water_nsquared</tspan></tspan></tspan></text>
 <text class="TextShape" transform="translate(20917,12404) rotate(-44.9) translate(-20917,-12404)"><tspan class="TextParagraph" font-family="Liberation Sans, sans-serif" font-size="353px" font-weight="400"><tspan class="TextPosition" x="20917" y="12404"><tspan fill="rgb(0,0,0)" stroke="none">lu_cb</tspan></tspan></tspan></text>
 <text class="TextShape"><tspan class="TextParagraph" font-family="Liberation Sans, sans-serif" font-size="353px" font-weight="400"><tspan class="TextPosition" x="1970" y="11470"><tspan fill="rgb(0,0,0)" stroke="none">6.5</tspan></tspan></tspan></text>
 <text class="TextShape"><tspan class="TextParagraph" font-family="Liberation Sans, sans-serif" font-size="353px" font-weight="400"><tspan class="TextPosition" x="2261" y="9646"><tspan fill="rgb(0,0,0)" stroke="none">7</tspan></tspan></tspan></text>
 <text class="TextShape"><tspan class="TextParagraph" font-family="Liberation Sans, sans-serif" font-size="353px" font-weight="400"><tspan class="TextPosition" x="1970" y="7822"><tspan fill="rgb(0,0,0)" stroke="none">7.5</tspan></tspan></tspan></text>
 <text class="TextShape"><tspan class="TextParagraph" font-family="Liberation Sans, sans-serif" font-size="353px" font-weight="400"><tspan class="TextPosition" x="2261" y="5998"><tspan fill="rgb(0,0,0)" stroke="none">8</tspan></tspan></tspan></text>
 <text class="TextShape"><tspan class="TextParagraph" font-family="Liberation Sans, sans-serif" font-size="353px" font-weight="400"><tspan class="TextPosition" x="1970" y="4174"><tspan fill="rgb(0,0,0)" stroke="none">8.5</tspan></tspan></tspan></text>
 <text class="TextShape"><tspan class="TextParagraph" font-family="Liberation Sans, sans-serif" font-size="353px" font-weight="400"><tspan class="TextPosition" x="2261" y="2350"><tspan fill="rgb(0,0,0)" stroke="none">9</tspan></tspan></tspan></text>
 <text class="TextShape"><tspan class="TextParagraph" font-family="Liberation Sans, sans-serif" font-size="353px" font-weight="400"><tspan class="TextPosition" x="1970" y="526"><tspan fill="rgb(0,0,0)" stroke="none">9.5</tspan></tspan></tspan></text>
 <path fill="rgb(0,69,134)" stroke="none" d="M 3889,1964 L 3731,1964 3731,1647 4048,1647 4048,1964 3889,1964 Z"/>
 <path fill="rgb(255,66,14)" stroke="none" d="M 3889,2801 L 3731,2801 3731,2484 4048,2484 4048,2801 3889,2801 Z"/>
 <text class="TextShape"><tspan class="TextParagraph" font-family="Liberation Sans, sans-serif" font-size="529px" font-weight="400"><tspan class="TextPosition" x="4164" y="1990"><tspan fill="rgb(0,0,0)" stroke="none">actual_consumption</tspan></tspan></tspan></text>
 <text class="TextShape"><tspan class="TextParagraph" font-family="Liberation Sans, sans-serif" font-size="529px" font-weight="400"><tspan class="TextPosition" x="4164" y="2827"><tspan fill="rgb(0,0,0)" stroke="none">predicted_consumption</tspan></tspan></tspan></text>
 <text class="TextShape"><tspan class="TextParagraph" font-family="Liberation Sans, sans-serif" font-size="318px" font-weight="400"><tspan class="TextPosition" x="10993" y="14274"><tspan fill="rgb(0,0,0)" stroke="none">Benchmark</tspan></tspan></tspan></text>
 <text class="TextShape" transform="translate(1021,8417) rotate(-90) translate(-1021,-8417)"><tspan class="TextParagraph" font-family="Liberation Sans, sans-serif" font-size="318px" font-weight="400"><tspan class="TextPosition" x="1021" y="8417"><tspan fill="rgb(0,0,0)" stroke="none">Energy Consumption</tspan></tspan></tspan></text>
</svg>