<?xml version="1.0" encoding="UTF-8"?>
<!DOCTYPE svg PUBLIC "-//W3C//DTD SVG 1.1//EN" "http://www.w3.org/Graphics/SVG/1.1/DTD/svg11.dtd">
<svg width="248mm" height="142mm" viewBox="0 0 24800 14200" version="1.1" xmlns="http://www.w3.org/2000/svg" stroke-width="28.222" stroke-linejoin="round" xml:space="preserve">
 <path fill="rgb(255,255,255)" stroke="none" d="M 12415,14245 L 0,14245 0,0 24830,0 24830,14245 12415,14245 Z"/>
 <path fill="none" stroke="rgb(179,179,179)" stroke-linejoin="round" d="M 13136,10546 L 1941,10546 1941,283 24331,283 24331,10546 13136,10546 Z"/>
 <path fill="none" stroke="rgb(179,179,179)" stroke-linejoin="round" d="M 24331,10545 L 1941,10545"/>
 <path fill="none" stroke="rgb(179,179,179)" stroke-linejoin="round" d="M 24331,9078 L 1941,9078"/>
 <path fill="none" stroke="rgb(179,179,179)" stroke-linejoin="round" d="M 24331,7612 L 1941,7612"/>
 <path fill="none" stroke="rgb(179,179,179)" stroke-linejoin="round" d="M 24331,6147 L 1941,6147"/>
 <path fill="none" stroke="rgb(179,179,179)" stroke-linejoin="round" d="M 24331,4680 L 1941,4680"/>
 <path fill="none" stroke="rgb(179,179,179)" stroke-linejoin="round" d="M 24331,3214 L 1941,3214"/>
 <path fill="none" stroke="rgb(179,179,179)" stroke-linejoin="round" d="M 24331,1748 L 1941,1748"/>
 <path fill="none" stroke="rgb(179,179,179)" stroke-linejoin="round" d="M 24331,281 L 1941,281"/>
 <path fill="none" stroke="rgb(179,179,179)" stroke-linejoin="round" d="M 1941,10695 L 1941,10545"/>
 <path fill="none" stroke="rgb(179,179,179)" stroke-linejoin="round" d="M 1941,10695 L 1941,10545"/>
 <path fill="none" stroke="rgb(179,179,179)" stroke-linejoin="round" d="M 3258,10695 L 3258,10545"/>
 <path fill="none" stroke="rgb(179,179,179)" stroke-linejoin="round" d="M 3258,10695 L 3258,10545"/>
 <path fill="none" stroke="rgb(179,179,179)" stroke-linejoin="round" d="M 4575,10695 L 4575,10545"/>
 <path fill="none" stroke="rgb(179,179,179)" stroke-linejoin="round" d="M 4575,10695 L 4575,10545"/>
 <path fill="none" stroke="rgb(179,179,179)" stroke-linejoin="round" d="M 5892,10695 L 5892,10545"/>
 <path fill="none" stroke="rgb(179,179,179)" stroke-linejoin="round" d="M 5892,10695 L 5892,10545"/>
 <path fill="none" stroke="rgb(179,179,179)" stroke-linejoin="round" d="M 7209,10695 L 7209,10545"/>
 <path fill="none" stroke="rgb(179,179,179)" stroke-linejoin="round" d="M 7209,10695 L 7209,10545"/>
 <path fill="none" stroke="rgb(179,179,179)" stroke-linejoin="round" d="M 8526,10695 L 8526,10545"/>
 <path fill="none" stroke="rgb(179,179,179)" stroke-linejoin="round" d="M 8526,10695 L 8526,10545"/>
 <path fill="none" stroke="rgb(179,179,179)" stroke-linejoin="round" d="M 9843,10695 L 9843,10545"/>
 <path fill="none" stroke="rgb(179,179,179)" stroke-linejoin="round" d="M 9843,10695 L 9843,10545"/>
 <path fill="none" stroke="rgb(179,179,179)" stroke-linejoin="round" d="M 11160,10695 L 11160,10545"/>
 <path fill="none" stroke="rgb(179,179,179)" stroke-linejoin="round" d="M 11160,10695 L 11160,10545"/>
 <path fill="none" stroke="rgb(179,179,179)" stroke-linejoin="round" d="M 12476,10695 L 12476,10545"/>
 <path fill="none" stroke="rgb(179,179,179)" stroke-linejoin="round" d="M 12476,10695 L 12476,10545"/>
 <path fill="none" stroke="rgb(179,179,179)" stroke-linejoin="round" d="M 13794,10695 L 13794,10545"/>
 <path fill="none" stroke="rgb(179,179,179)" stroke-linejoin="round" d="M 13794,10695 L 13794,10545"/>
 <path fill="none" stroke="rgb(179,179,179)" stroke-linejoin="round" d="M 15111,10695 L 15111,10545"/>
 <path fill="none" stroke="rgb(179,179,179)" stroke-linejoin="round" d="M 15111,10695 L 15111,10545"/>
 <path fill="none" stroke="rgb(179,179,179)" stroke-linejoin="round" d="M 16428,10695 L 16428,10545"/>
 <path fill="none" stroke="rgb(179,179,179)" stroke-linejoin="round" d="M 16428,10695 L 16428,10545"/>
 <path fill="none" stroke="rgb(179,179,179)" stroke-linejoin="round" d="M 17745,10695 L 17745,10545"/>
 <path fill="none" stroke="rgb(179,179,179)" stroke-linejoin="round" d="M 17745,10695 L 17745,10545"/>
 <path fill="none" stroke="rgb(179,179,179)" stroke-linejoin="round" d="M 19062,10695 L 19062,10545"/>
 <path fill="none" stroke="rgb(179,179,179)" stroke-linejoin="round" d="M 19062,10695 L 19062,10545"/>
 <path fill="none" stroke="rgb(179,179,179)" stroke-linejoin="round" d="M 20379,10695 L 20379,10545"/>
 <path fill="none" stroke="rgb(179,179,179)" stroke-linejoin="round" d="M 20379,10695 L 20379,10545"/>
 <path fill="none" stroke="rgb(179,179,179)" stroke-linejoin="round" d="M 21696,10695 L 21696,10545"/>
 <path fill="none" stroke="rgb(179,179,179)" stroke-linejoin="round" d="M 21696,10695 L 21696,10545"/>
 <path fill="none" stroke="rgb(179,179,179)" stroke-linejoin="round" d="M 23013,10695 L 23013,10545"/>
 <path fill="none" stroke="rgb(179,179,179)" stroke-linejoin="round" d="M 23013,10695 L 23013,10545"/>
 <path fill="none" stroke="rgb(179,179,179)" stroke-linejoin="round" d="M 24331,10695 L 24331,10545"/>
 <path fill="none" stroke="rgb(179,179,179)" stroke-linejoin="round" d="M 24331,10695 L 24331,10545"/>
 <path fill="none" stroke="rgb(179,179,179)" stroke-linejoin="round" d="M 1941,10545 L 24331,10545"/>
 <path fill="none" stroke="rgb(179,179,179)" stroke-linejoin="round" d="M 1791,10545 L 1941,10545"/>
 <path fill="none" stroke="rgb(179,179,179)" stroke-linejoin="round" d="M 1791,10545 L 1941,10545"/>
 <path fill="none" stroke="rgb(179,179,179)" stroke-linejoin="round" d="M 1791,9078 L 1941,9078"/>
 <path fill="none" stroke="rgb(179,179,179)" stroke-linejoin="round" d="M 1791,9078 L 1941,9078"/>
 <path fill="none" stroke="rgb(179,179,179)" stroke-linejoin="round" d="M 1791,7612 L 1941,7612"/>
 <path fill="none" stroke="rgb(179,179,179)" stroke-linejoin="round" d="M 1791,7612 L 1941,7612"/>
 <path fill="none" stroke="rgb(179,179,179)" stroke-linejoin="round" d="M 1791,6147 L 1941,6147"/>
 <path fill="none" stroke="rgb(179,179,179)" stroke-linejoin="round" d="M 1791,6147 L 1941,6147"/>
 <path fill="none" stroke="rgb(179,179,179)" stroke-linejoin="round" d="M 1791,4680 L 1941,4680"/>
 <path fill="none" stroke="rgb(179,179,179)" stroke-linejoin="round" d="M 1791,4680 L 1941,4680"/>
 <path fill="none" stroke="rgb(179,179,179)" stroke-linejoin="round" d="M 1791,3214 L 1941,3214"/>
 <path fill="none" stroke="rgb(179,179,179)" stroke-linejoin="round" d="M 1791,3214 L 1941,3214"/>
 <path fill="none" stroke="rgb(179,179,179)" stroke-linejoin="round" d="M 1791,1748 L 1941,1748"/>
 <path fill="none" stroke="rgb(179,179,179)" stroke-linejoin="round" d="M 1791,1748 L 1941,1748"/>
 <path fill="none" stroke="rgb(179,179,179)" stroke-linejoin="round" d="M 1791,281 L 1941,281"/>
 <path fill="none" stroke="rgb(179,179,179)" stroke-linejoin="round" d="M 1791,281 L 1941,281"/>
 <path fill="none" stroke="rgb(179,179,179)" stroke-linejoin="round" d="M 1941,10545 L 1941,281"/>
 <path fill="rgb(0,69,134)" stroke="none" d="M 23233,10545 L 23672,10545 23672,1880 23233,1880 23233,10545 Z"/>
 <path fill="rgb(0,69,134)" stroke="none" d="M 21916,10545 L 22355,10545 22355,3462 21916,3462 21916,10545 Z"/>
 <path fill="rgb(0,69,134)" stroke="none" d="M 20599,10545 L 21038,10545 21038,3872 20599,3872 20599,10545 Z"/>
 <path fill="rgb(0,69,134)" stroke="none" d="M 19282,10545 L 19721,10545 19721,5653 19282,5653 19282,10545 Z"/>
 <path fill="rgb(0,69,134)" stroke="none" d="M 17964,10545 L 18403,10545 18403,6000 17964,6000 17964,10545 Z"/>
 <path fill="rgb(0,69,134)" stroke="none" d="M 16647,10545 L 17086,10545 17086,6220 16647,6220 16647,10545 Z"/>
 <path fill="rgb(0,69,134)" stroke="none" d="M 15330,10545 L 15769,10545 15769,6262 15330,6262 15330,10545 Z"/>
 <path fill="rgb(0,69,134)" stroke="none" d="M 14013,10545 L 14452,10545 14452,6591 14013,6591 14013,10545 Z"/>
 <path fill="rgb(0,69,134)" stroke="none" d="M 12696,10545 L 13135,10545 13135,6791 12696,6791 12696,10545 Z"/>
 <path fill="rgb(0,69,134)" stroke="none" d="M 11380,10545 L 11819,10545 11819,6926 11380,6926 11380,10545 Z"/>
 <path fill="rgb(0,69,134)" stroke="none" d="M 10063,10545 L 10502,10545 10502,7015 10063,7015 10063,10545 Z"/>
 <path fill="rgb(0,69,134)" stroke="none" d="M 8746,10545 L 9185,10545 9185,7108 8746,7108 8746,10545 Z"/>
 <path fill="rgb(0,69,134)" stroke="none" d="M 7428,10545 L 7868,10545 7868,7328 7428,7328 7428,10545 Z"/>
 <path fill="rgb(0,69,134)" stroke="none" d="M 6111,10545 L 6550,10545 6550,7450 6111,7450 6111,10545 Z"/>
 <path fill="rgb(0,69,134)" stroke="none" d="M 4794,10545 L 5233,10545 5233,7843 4794,7843 4794,10545 Z"/>
 <path fill="rgb(0,69,134)" stroke="none" d="M 3477,10545 L 3916,10545 3916,8256 3477,8256 3477,10545 Z"/>
 <path fill="rgb(0,69,134)" stroke="none" d="M 2160,10545 L 2599,10545 2599,8294 2160,8294 2160,10545 Z"/>
 <path fill="rgb(255,66,14)" stroke="none" d="M 23672,10545 L 24111,10545 24111,1875 23672,1875 23672,10545 Z"/>
 <path fill="rgb(255,66,14)" stroke="none" d="M 22355,10545 L 22794,10545 22794,3926 22355,3926 22355,10545 Z"/>
 <path fill="rgb(255,66,14)" stroke="none" d="M 21038,10545 L 21477,10545 21477,3770 21038,3770 21038,10545 Z"/>
 <path fill="rgb(255,66,14)" stroke="none" d="M 19721,10545 L 20160,10545 20160,6194 19721,6194 19721,10545 Z"/>
 <path fill="rgb(255,66,14)" stroke="none" d="M 18403,10545 L 18843,10545 18843,6786 18403,6786 18403,10545 Z"/>
 <path fill="rgb(255,66,14)" stroke="none" d="M 17086,10545 L 17525,10545 17525,6435 17086,6435 17086,10545 Z"/>
 <path fill="rgb(255,66,14)" stroke="none" d="M 15769,10545 L 16208,10545 16208,6624 15769,6624 15769,10545 Z"/>
 <path fill="rgb(255,66,14)" stroke="none" d="M 14452,10545 L 14891,10545 14891,6600 14452,6600 14452,10545 Z"/>
 <path fill="rgb(255,66,14)" stroke="none" d="M 13135,10545 L 13574,10545 13574,6701 13135,6701 13135,10545 Z"/>
 <path fill="rgb(255,66,14)" stroke="none" d="M 11819,10545 L 12258,10545 12258,6621 11819,6621 11819,10545 Z"/>
 <path fill="rgb(255,66,14)" stroke="none" d="M 10502,10545 L 10941,10545 10941,6671 10502,6671 10502,10545 Z"/>
 <path fill="rgb(255,66,14)" stroke="none" d="M 9185,10545 L 9624,10545 9624,6173 9185,6173 9185,10545 Z"/>
 <path fill="rgb(255,66,14)" stroke="none" d="M 7868,10545 L 8307,10545 8307,7208 7868,7208 7868,10545 Z"/>
 <path fill="rgb(255,66,14)" stroke="none" d="M 6550,10545 L 6989,10545 6989,6674 6550,6674 6550,10545 Z"/>
 <path fill="rgb(255,66,14)" stroke="none" d="M 5233,10545 L 5672,10545 5672,7622 5233,7622 5233,10545 Z"/>
 <path fill="rgb(255,66,14)" stroke="none" d="M 3916,10545 L 4355,10545 4355,8426 3916,8426 3916,10545 Z"/>
 <path fill="rgb(255,66,14)" stroke="none" d="M 2599,10545 L 3038,10545 3038,8645 2599,8645 2599,10545 Z"/>
 <text class="TextShape" transform="translate(2158,11544) rotate(-44.9) translate(-2158,-11544)"><tspan class="TextParagraph" font-family="Liberation Sans, sans-serif" font-size="353px" font-weight="400"><tspan class="TextPosition" x="2158" y="11544"><tspan fill="rgb(0,0,0)" stroke="none">radix</tspan></tspan></tspan></text>
 <text class="TextShape" transform="translate(2521,12498) rotate(-44.9) translate(-2521,-12498)"><tspan class="TextParagraph" font-family="Liberation Sans, sans-serif" font-size="353px" font-weight="400"><tspan class="TextPosition" x="2521" y="12498"><tspan fill="rgb(0,0,0)" stroke="none">streamcluster</tspan></tspan></tspan></text>
 <text class="TextShape" transform="translate(4474,11862) rotate(-44.9) translate(-4474,-11862)"><tspan class="TextParagraph" font-family="Liberation Sans, sans-serif" font-size="353px" font-weight="400"><tspan class="TextPosition" x="4474" y="11862"><tspan fill="rgb(0,0,0)" stroke="none">canneal</tspan></tspan></tspan></text>
 <text class="TextShape" transform="translate(5211,12442) rotate(-44.9) translate(-5211,-12442)"><tspan class="TextParagraph" font-family="Liberation Sans, sans-serif" font-size="353px" font-weight="400"><tspan class="TextPosition" x="5211" y="12442"><tspan fill="rgb(0,0,0)" stroke="none">blackscholes</tspan></tspan></tspan></text>
 <text class="TextShape" transform="translate(7221,11750) rotate(-44.9) translate(-7221,-11750)"><tspan class="TextParagraph" font-family="Liberation Sans, sans-serif" font-size="353px" font-weight="400"><tspan class="TextPosition" x="7221" y="11750"><tspan fill="rgb(0,0,0)" stroke="none">barnes</tspan></tspan></tspan></text>
 <text class="TextShape" transform="translate(8744,11544) rotate(-44.9) translate(-8744,-11544)"><tspan class="TextParagraph" font-family="Liberation Sans, sans-serif" font-size="353px" font-weight="400"><tspan class="TextPosition" x="8744" y="11544"><tspan fill="rgb(0,0,0)" stroke="none">x264</tspan></tspan></tspan></text>
 <text class="TextShape" transform="translate(9649,11956) rotate(-44.9) translate(-9649,-11956)"><tspan class="TextParagraph" font-family="Liberation Sans, sans-serif" font-size="353px" font-weight="400"><tspan class="TextPosition" x="9649" y="11956"><tspan fill="rgb(0,0,0)" stroke="none">freqmine</tspan></tspan></tspan></text>
 <text class="TextShape" transform="translate(11340,11582) rotate(-44.9) translate(-11340,-11582)"><tspan class="TextParagraph" font-family="Liberation Sans, sans-serif" font-size="353px" font-weight="400"><tspan class="TextPosition" x="11340" y="11582"><tspan fill="rgb(0,0,0)" stroke="none">ferret</tspan></tspan></tspan></text>
 <text class="TextShape" transform="translate(12508,11732) rotate(-44.9) translate(-12508,-11732)"><tspan class="TextParagraph" font-family="Liberation Sans, sans-serif" font-size="353px" font-weight="400"><tspan class="TextPosition" x="12508" y="11732"><tspan fill="rgb(0,0,0)" stroke="none">lu_ncb</tspan></tspan></tspan></text>
 <text class="TextShape" transform="translate(13750,11806) rotate(-44.9) translate(-13750,-11806)"><tspan class="TextParagraph" font-family="Liberation Sans, sans-serif" font-size="353px" font-weight="400"><tspan class="TextPosition" x="13750" y="11806"><tspan fill="rgb(0,0,0)" stroke="none">volrend</tspan></tspan></tspan></text>
 <text class="TextShape" transform="translate(14543,12330) rotate(-44.9) translate(-14543,-12330)"><tspan class="TextParagraph" font-family="Liberation Sans, sans-serif" font-size="353px" font-weight="400"><tspan class="TextPosition" x="14543" y="12330"><tspan fill="rgb(0,0,0)" stroke="none">fluidanimate</tspan></tspan></tspan></text>
 <text class="TextShape" transform="translate(16590,11600) rotate(-44.9) translate(-16590,-11600)"><tspan class="TextParagraph" font-family="Liberation Sans, sans-serif" font-size="353px" font-weight="400"><tspan class="TextPosition" x="16590" y="11600"><tspan fill="rgb(0,0,0)" stroke="none">lu_cb</tspan></tspan></tspan></text>
 <text class="TextShape" transform="translate(17515,11993) rotate(-44.9) translate(-17515,-11993)"><tspan class="TextParagraph" font-family="Liberation Sans, sans-serif" font-size="353px" font-weight="400"><tspan class="TextPosition" x="17515" y="11993"><tspan fill="rgb(0,0,0)" stroke="none">cholesky</tspan></tspan></tspan></text>
 <text class="TextShape" transform="translate(18382,12442) rotate(-44.9) translate(-18382,-12442)"><tspan class="TextParagraph" font-family="Liberation Sans, sans-serif" font-size="353px" font-weight="400"><tspan class="TextPosition" x="18382" y="12442"><tspan fill="rgb(0,0,0)" stroke="none">water_spatial</tspan></tspan></tspan></text>
 <text class="TextShape" transform="translate(20073,12068) rotate(-44.9) translate(-20073,-12068)"><tspan class="TextParagraph" font-family="Liberation Sans, sans-serif" font-size="353px" font-weight="400"><tspan class="TextPosition" x="20073" y="12068"><tspan fill="rgb(0,0,0)" stroke="none">ocean_cp</tspan></tspan></tspan></text>
 <text class="TextShape" transform="translate(20736,12723) rotate(-44.9) translate(-20736,-12723)"><tspan class="TextParagraph" font-family="Liberation Sans, sans-serif" font-size="353px" font-weight="400"><tspan class="TextPosition" x="20736" y="12723"><tspan fill="rgb(0,0,0)" stroke="none">water_nsquared</tspan></tspan></tspan></text>
 <text class="TextShape" transform="translate(22875,11900) rotate(-44.9) translate(-22875,-11900)"><tspan class="TextParagraph" font-family="Liberation Sans, sans-serif" font-size="353px" font-weight="400"><tspan class="TextPosition" x="22875" y="11900"><tspan fill="rgb(0,0,0)" stroke="none">raytrace</tspan></tspan></tspan></text>
 <text class="TextShape"><tspan class="TextParagraph" font-family="Liberation Sans, sans-serif" font-size="353px" font-weight="400"><tspan class="TextPosition" x="1506" y="10666"><tspan fill="rgb(0,0,0)" stroke="none">0</tspan></tspan></tspan></text>
 <text class="TextShape"><tspan class="TextParagraph" font-family="Liberation Sans, sans-serif" font-size="353px" font-weight="400"><tspan class="TextPosition" x="1506" y="9199"><tspan fill="rgb(0,0,0)" stroke="none">1</tspan></tspan></tspan></text>
 <text class="TextShape"><tspan class="TextParagraph" font-family="Liberation Sans, sans-serif" font-size="353px" font-weight="400"><tspan class="TextPosition" x="1506" y="7733"><tspan fill="rgb(0,0,0)" stroke="none">2</tspan></tspan></tspan></text>
 <text class="TextShape"><tspan class="TextParagraph" font-family="Liberation Sans, sans-serif" font-size="353px" font-weight="400"><tspan class="TextPosition" x="1506" y="6267"><tspan fill="rgb(0,0,0)" stroke="none">3</tspan></tspan></tspan></text>
 <text class="TextShape"><tspan class="TextParagraph" font-family="Liberation Sans, sans-serif" font-size="353px" font-weight="400"><tspan class="TextPosition" x="1506" y="4800"><tspan fill="rgb(0,0,0)" stroke="none">4</tspan></tspan></tspan></text>
 <text class="TextShape"><tspan class="TextParagraph" font-family="Liberation Sans, sans-serif" font-size="353px" font-weight="400"><tspan class="TextPosition" x="1506" y="3334"><tspan fill="rgb(0,0,0)" stroke="none">5</tspan></tspan></tspan></text>
 <text class="TextShape"><tspan class="TextParagraph" font-family="Liberation Sans, sans-serif" font-size="353px" font-weight="400"><tspan class="TextPosition" x="1506" y="1868"><tspan fill="rgb(0,0,0)" stroke="none">6</tspan></tspan></tspan></text>
 <text class="TextShape"><tspan class="TextParagraph" font-family="Liberation Sans, sans-serif" font-size="353px" font-weight="400"><tspan class="TextPosition" x="1506" y="401"><tspan fill="rgb(0,0,0)" stroke="none">7</tspan></tspan></tspan></text>
 <path fill="rgb(0,69,134)" stroke="none" d="M 2762,1434 L 2604,1434 2604,1117 2921,1117 2921,1434 2762,1434 Z"/>
 <path fill="rgb(255,66,14)" stroke="none" d="M 2762,2395 L 2604,2395 2604,2078 2921,2078 2921,2395 2762,2395 Z"/>
 <text class="TextShape"><tspan class="TextParagraph" font-family="Liberation Sans, sans-serif" font-size="529px" font-weight="400"><tspan class="TextPosition" x="3037" y="1460"><tspan fill="rgb(0,0,0)" stroke="none">actual_speedup</tspan></tspan></tspan></text>
 <text class="TextShape"><tspan class="TextParagraph" font-family="Liberation Sans, sans-serif" font-size="529px" font-weight="400"><tspan class="TextPosition" x="3037" y="2421"><tspan fill="rgb(0,0,0)" stroke="none">predicted_speedup</tspan></tspan></tspan></text>
 <text class="TextShape"><tspan class="TextParagraph" font-family="Liberation Sans, sans-serif" font-size="318px" font-weight="400"><tspan class="TextPosition" x="12098" y="13450"><tspan fill="rgb(0,0,0)" stroke="none">Benchmark</tspan></tspan></tspan></text>
 <text class="TextShape" transform="translate(835,7092) rotate(-90) translate(-835,-7092)"><tspan class="TextParagraph" font-family="Liberation Sans, sans-serif" font-size="318px" font-weight="400"><tspan class="TextPosition" x="835" y="7092"><tspan fill="rgb(0,0,0)" stroke="none">Speedup</tspan></tspan></tspan></text>
</svg>